<?xml version="1.0" encoding="UTF-8"?>
<svg version="1.1" xmlns="http://www.w3.org/2000/svg" width="225" height="225">
<path d="M0 0 C74.25 0 148.5 0 225 0 C225 74.25 225 148.5 225 225 C150.75 225 76.5 225 0 225 C0 150.75 0 76.5 0 0 Z " fill="#000000" transform="translate(0,0)"/>
<path d="M0 0 C2.31 0 4.62 0 7 0 C7.3403125 1.2065625 7.3403125 1.2065625 7.6875 2.4375 C8.75624123 5.20869776 8.75624123 5.20869776 11.4375 6 C14.05093861 6.26538732 14.05093861 6.26538732 15.8125 4.5625 C16.204375 4.046875 16.59625 3.53125 17 3 C21.75 4.875 21.75 4.875 24 6 C24 7.98 24 9.96 24 12 C26.27054395 13.26141331 28.04278608 14.00713101 30.625 14.4375 C33 15 33 15 35 18 C34.625 20.1875 34.625 20.1875 34 22 C33.34 21.67 32.68 21.34 32 21 C32 19.33333333 32 17.66666667 32 16 C30.9275 16.2475 29.855 16.495 28.75 16.75 C25 17 25 17 22.5 15.4375 C21 13 21 13 21.25 9.75 C21.4975 8.8425 21.745 7.935 22 7 C19.60280568 6.32041397 19.60280568 6.32041397 17 6 C16.34 6.66 15.68 7.32 15 8 C9.66666667 8.33333333 9.66666667 8.33333333 7 7 C6.375 4.4375 6.375 4.4375 6 2 C4.35 2 2.7 2 1 2 C0.814375 3.2065625 0.814375 3.2065625 0.625 4.4375 C0.41875 5.283125 0.2125 6.12875 0 7 C-2.7798816 8.3899408 -4.9186326 8.18488204 -8 8 C-9.3479743 7.36345658 -10.68596724 6.70394612 -12 6 C-12.99 6.495 -12.99 6.495 -14 7 C-14 8.98 -14 10.96 -14 13 C-7.4 13 -0.8 13 6 13 C0.555 12.505 0.555 12.505 -5 12 C-2.35757723 9.35757723 -1.05587947 9.70147802 2.625 9.6875 C11.65513288 9.88146467 16.64874109 12.14186902 23.140625 18.37890625 C25.04211361 20.0367167 26.70732439 20.969584 29 22 C30.71074581 22.80740807 32.41898609 23.6201411 34.125 24.4375 C34.99382812 24.84871094 35.86265625 25.25992188 36.7578125 25.68359375 C39 27 39 27 41 30 C41.1953125 32.48046875 41.1953125 32.48046875 41.125 35.1875 C41.10695313 36.08855469 41.08890625 36.98960938 41.0703125 37.91796875 C41.04710937 38.60503906 41.02390625 39.29210937 41 40 C31.16556239 42.18779066 21.07174595 43 11 43 C10.01 43.33 9.02 43.66 8 44 C8.70125 44.391875 9.4025 44.78375 10.125 45.1875 C18.11111111 50.22222222 18.11111111 50.22222222 20 54 C23.81300782 50.7129243 25.22972246 47.60272162 27 43 C27.66 43 28.32 43 29 43 C27.96224133 46.54567546 26.71887019 49.60349972 24.8125 52.75 C24.214375 53.8225 23.61625 54.895 23 56 C23.33 56.66 23.66 57.32 24 58 C24.33 57.67 24.66 57.34 25 57 C27.33297433 56.95907063 29.66705225 56.95758277 32 57 C32.20086443 53.28400809 32.1519437 52.22791555 30 49 C30.875 45.8125 30.875 45.8125 32 43 C35.465 42.505 35.465 42.505 39 42 C39 42.66 39 43.32 39 44 C37.35 44.33 35.7 44.66 34 45 C33.8660868 49.12303294 33.8660868 49.12303294 34.6875 53.125 C35 55 35 55 33.9375 57.25 C31.27965174 59.65063714 29.48089499 59.14812319 26 59 C25.34 59.66 24.68 60.32 24 61 C24.061875 61.969375 24.12375 62.93875 24.1875 63.9375 C24 67 24 67 21.8125 69 C18.27875887 70.25644129 17.30530555 69.57002014 14 68 C11.29113059 67.83201738 11.29113059 67.83201738 9 68 C8.34 69.65 7.68 71.3 7 73 C4.69 73 2.38 73 0 73 C-0.66 71.35 -1.32 69.7 -2 68 C-5.46941546 68.45822468 -8.67395049 68.89131683 -12 70 C-14.6875 68.9375 -14.6875 68.9375 -17 67 C-17.3125 63.8125 -17.3125 63.8125 -17 61 C-19.27054395 59.73858669 -21.04278608 58.99286899 -23.625 58.5625 C-26 58 -26 58 -28 55 C-27.6875 53 -27.6875 53 -27 51 C-25.84188612 48.05270463 -25.84188612 48.05270463 -26 45 C-27.98 44.67 -29.96 44.34 -32 44 C-32.33 41.69 -32.66 39.38 -33 37 C-32.01 36.505 -32.01 36.505 -31 36 C-32.83656989 33.03268602 -32.83656989 33.03268602 -35 31 C-34.9765625 28.3984375 -34.9765625 28.3984375 -34.625 25.375 C-34.51414062 24.37210938 -34.40328125 23.36921875 -34.2890625 22.3359375 C-34.19367188 21.56507812 -34.09828125 20.79421875 -34 20 C-32.02 20 -30.04 20 -28 20 C-27.87625 19.38125 -27.7525 18.7625 -27.625 18.125 C-27 16 -27 16 -25 14 C-22.6670386 13.95833998 -20.3329614 13.95833998 -18 14 C-17.34 13.67 -16.68 13.34 -16 13 C-16.33 10.69 -16.66 8.38 -17 6 C-14.75 4.375 -14.75 4.375 -12 3 C-10.0625 3.75 -10.0625 3.75 -8 5 C-6.00889599 5.38290462 -4.00899487 5.72604615 -2 6 C-1.34 4.02 -0.68 2.04 0 0 Z " fill="#090606" transform="translate(109,63)"/>
<path d="M0 0 C2.31 0 4.62 0 7 0 C7.3403125 1.2065625 7.3403125 1.2065625 7.6875 2.4375 C8.75624123 5.20869776 8.75624123 5.20869776 11.4375 6 C14.05093861 6.26538732 14.05093861 6.26538732 15.8125 4.5625 C16.204375 4.046875 16.59625 3.53125 17 3 C21.75 4.875 21.75 4.875 24 6 C24 7.98 24 9.96 24 12 C26.27054395 13.26141331 28.04278608 14.00713101 30.625 14.4375 C33 15 33 15 35 18 C34.625 20.1875 34.625 20.1875 34 22 C33.34 21.67 32.68 21.34 32 21 C32 19.33333333 32 17.66666667 32 16 C30.9275 16.2475 29.855 16.495 28.75 16.75 C25 17 25 17 22.5 15.4375 C21 13 21 13 21.25 9.75 C21.4975 8.8425 21.745 7.935 22 7 C19.60280568 6.32041397 19.60280568 6.32041397 17 6 C16.34 6.66 15.68 7.32 15 8 C9.66666667 8.33333333 9.66666667 8.33333333 7 7 C6.375 4.4375 6.375 4.4375 6 2 C4.35 2 2.7 2 1 2 C0.87625 2.804375 0.7525 3.60875 0.625 4.4375 C0.315625 5.7059375 0.315625 5.7059375 0 7 C-2.7798816 8.3899408 -4.9186326 8.18488204 -8 8 C-9.3479743 7.36345658 -10.68596724 6.70394612 -12 6 C-12.99 6.495 -12.99 6.495 -14 7 C-14 8.98 -14 10.96 -14 13 C-7.4 13 -0.8 13 6 13 C0.555 12.505 0.555 12.505 -5 12 C-2.35757723 9.35757723 -1.05587947 9.70147802 2.625 9.6875 C11.65513288 9.88146467 16.64874109 12.14186902 23.140625 18.37890625 C25.04211361 20.0367167 26.70732439 20.969584 29 22 C30.71074581 22.80740807 32.41898609 23.6201411 34.125 24.4375 C34.99382812 24.84871094 35.86265625 25.25992188 36.7578125 25.68359375 C39 27 39 27 41 30 C41.1953125 32.48046875 41.1953125 32.48046875 41.125 35.1875 C41.10695312 36.08855469 41.08890625 36.98960938 41.0703125 37.91796875 C41.04710937 38.60503906 41.02390625 39.29210937 41 40 C31.16556239 42.18779066 21.07174595 43 11 43 C5.48242069 44.28315798 1.85835303 46.98416318 -2 51 C-2.556875 51.928125 -3.11375 52.85625 -3.6875 53.8125 C-5 56 -5 56 -7.1875 56.8125 C-7.785625 56.874375 -8.38375 56.93625 -9 57 C-9 56.34 -9 55.68 -9 55 C-8.01 54.505 -8.01 54.505 -7 54 C-6.67 53.01 -6.34 52.02 -6 51 C-8.97 51.495 -8.97 51.495 -12 52 C-11.9375 50.1875 -11.9375 50.1875 -11 48 C-9.3232685 47.24382697 -7.63891521 46.49820934 -5.9140625 45.859375 C-3.83504968 44.92594067 -2.39642083 43.8109626 -0.6875 42.3125 C2 40 2 40 4 40 C3.95875 39.21625 3.9175 38.4325 3.875 37.625 C4 35 4 35 6 33 C5.01 32.34 4.02 31.68 3 31 C3 30.34 3 29.68 3 29 C4.45880109 29.14107747 5.91703551 29.28802415 7.375 29.4375 C8.18710938 29.51871094 8.99921875 29.59992188 9.8359375 29.68359375 C12 30 12 30 14 31 C14 31.66 14 32.32 14 33 C12.68 33 11.36 33 10 33 C10 33.66 10 34.32 10 35 C9.01 35.495 9.01 35.495 8 36 C8 36.99 8 37.98 8 39 C10.475 38.505 10.475 38.505 13 38 C13 38.66 13 39.32 13 40 C21.58 39.67 30.16 39.34 39 39 C38.505 35.535 38.505 35.535 38 32 C37.01 32 36.02 32 35 32 C35.33 30.68 35.66 29.36 36 28 C33.60931266 26.89363605 33.60931266 26.89363605 31 26 C30.01 26.495 30.01 26.495 29 27 C28.18273437 26.52949219 27.36546875 26.05898437 26.5234375 25.57421875 C21.78156038 23.45561955 17.74726637 23.67001185 12.625 23.8125 C11.23474609 23.83280273 11.23474609 23.83280273 9.81640625 23.85351562 C7.54366002 23.88866119 5.27214153 23.93785868 3 24 C3.99 24.66 4.98 25.32 6 26 C-2.58 25.34 -11.16 24.68 -20 24 C-20 23.67 -20 23.34 -20 23 C-16.04 23 -12.08 23 -8 23 C-10.51407619 18.71675909 -12.12314139 16.35468295 -17 15 C-16.67 14.34 -16.34 13.68 -16 13 C-16.28241883 10.6599583 -16.61250787 8.32495277 -17 6 C-14.75 4.375 -14.75 4.375 -12 3 C-10.0625 3.75 -10.0625 3.75 -8 5 C-6.00889599 5.38290462 -4.00899487 5.72604615 -2 6 C-1.34 4.02 -0.68 2.04 0 0 Z " fill="#A57E64" transform="translate(109,63)"/>
<path d="M0 0 C0.66 0 1.32 0 2 0 C2.18175781 0.59167969 2.36351563 1.18335937 2.55078125 1.79296875 C3.95667057 6.212508 5.37527181 10.12540125 8 14 C8.66 13.01 9.32 12.02 10 11 C12 10.25 12 10.25 14 10 C14.66 10.33 15.32 10.66 16 11 C15.67 12.32 15.34 13.64 15 15 C14.34 15 13.68 15 13 15 C13 15.66 13 16.32 13 17 C17.13497963 14.87663208 18.6873174 12.95083278 21 9 C26.29110512 4.11590296 26.29110512 4.11590296 30 4 C34.32576341 6.04904583 39.82757849 9.65515697 42 14 C45.81300782 10.7129243 47.22972246 7.60272162 49 3 C49.66 3 50.32 3 51 3 C48.47968727 11.82109455 43.78966283 17.16530159 35.9375 21.8125 C29.71758857 24.19312982 22.44928664 24.06313629 16.1484375 22.12109375 C8.37084289 18.56125815 3.12781623 12.99330815 0 5 C-0.1875 2.125 -0.1875 2.125 0 0 Z " fill="#1F0C09" transform="translate(87,103)"/>
<path d="M0 0 C7.48566801 -0.30392938 13.28123873 -0.43403354 20 3 C20.66 2.67 21.32 2.34 22 2 C24.625 2.9375 24.625 2.9375 27 4 C26.34 5.65 25.68 7.3 25 9 C25.99 9 26.98 9 28 9 C28.33 8.01 28.66 7.02 29 6 C29 9.3 29 12.6 29 16 C23.51730931 17.15664737 18.19660726 17.11416255 12.625 17.0625 C11.69816406 17.05798828 10.77132812 17.05347656 9.81640625 17.04882812 C7.54420291 17.03711574 5.27213612 17.02071372 3 17 C3 16.34 3 15.68 3 15 C1.35 15.66 -0.3 16.32 -2 17 C-2.33 15.68 -2.66 14.36 -3 13 C-2.01 12.67 -1.02 12.34 0 12 C0 11.34 0 10.68 0 10 C1.32 10 2.64 10 4 10 C3.34 7.36 2.68 4.72 2 2 C1.34 2 0.68 2 0 2 C0 1.34 0 0.68 0 0 Z " fill="#0A0201" transform="translate(119,86)"/>
<path d="M0 0 C1.65 0 3.3 0 5 0 C5.33 1.65 5.66 3.3 6 5 C12.31268603 5.37552165 12.31268603 5.37552165 18 3 C18.99 3.66 19.98 4.32 21 5 C21 7 21 9 21 11 C21.99 11.66 22.98 12.32 24 13 C24 13.66 24 14.32 24 15 C27.465 14.505 27.465 14.505 31 14 C31.66 15.32 32.32 16.64 33 18 C33 17.01 33 16.02 33 15 C33.66 15 34.32 15 35 15 C35.79953138 18.28696233 36.09658936 19.71023192 35 23 C33.03740738 22.60388039 31.07992339 22.18238306 29.125 21.75 C28.03445312 21.51796875 26.94390625 21.2859375 25.8203125 21.046875 C23 20 23 20 21.890625 18.08984375 C21.44976562 17.05537109 21.44976562 17.05537109 21 16 C18.98357625 14.27241936 18.98357625 14.27241936 16.625 12.8125 C15.85414062 12.30332031 15.08328125 11.79414062 14.2890625 11.26953125 C10.07788093 8.93397833 6.5312246 8.88553017 1.75 8.9375 C0.13351563 8.95103516 0.13351563 8.95103516 -1.515625 8.96484375 C-2.74539062 8.98224609 -2.74539062 8.98224609 -4 9 C-2.86820313 9.12117188 -1.73640625 9.24234375 -0.5703125 9.3671875 C0.91151031 9.53600276 2.39327842 9.70529855 3.875 9.875 C4.62136719 9.95363281 5.36773437 10.03226563 6.13671875 10.11328125 C11.7734375 10.7734375 11.7734375 10.7734375 14 13 C12.73285156 12.84660156 11.46570313 12.69320312 10.16015625 12.53515625 C4.92615204 11.95360023 -0.30316199 11.67287756 -5.5625 11.4375 C-6.93245117 11.37272461 -6.93245117 11.37272461 -8.33007812 11.30664062 C-10.55327991 11.20188243 -12.77656707 11.09970983 -15 11 C-15.33 9.02 -15.66 7.04 -16 5 C-14.35 4.34 -12.7 3.68 -11 3 C-10.34 3.66 -9.68 4.32 -9 5 C-6.31160615 5.26991906 -3.70858064 5.08737357 -1 5 C-0.67 3.35 -0.34 1.7 0 0 Z " fill="#160A08" transform="translate(110,65)"/>
<path d="M0 0 C3.3 0 6.6 0 10 0 C10 0.66 10 1.32 10 2 C10.66 2 11.32 2 12 2 C12 2.66 12 3.32 12 4 C12.66 4.33 13.32 4.66 14 5 C14.495 5.99 14.495 5.99 15 7 C11.70303895 8.09898702 10.59505097 7.87124444 7.3125 7.0625 C6.50425781 6.86785156 5.69601563 6.67320313 4.86328125 6.47265625 C4.24839844 6.31667969 3.63351563 6.16070312 3 6 C4.32 7.65 5.64 9.3 7 11 C6.34 11.33 5.68 11.66 5 12 C4.34444881 14.52733235 4.34444881 14.52733235 4 17 C1.43386274 17.85537909 0.06517464 18.01396599 -2.625 17.4375 C-3.40875 17.293125 -4.1925 17.14875 -5 17 C-5.66 17.66 -6.32 18.32 -7 19 C-7.99 19 -8.98 19 -10 19 C-10 18.34 -10 17.68 -10 17 C-10.89203125 16.97421875 -11.7840625 16.9484375 -12.703125 16.921875 C-13.87359375 16.86515625 -15.0440625 16.8084375 -16.25 16.75 C-17.41015625 16.70359375 -18.5703125 16.6571875 -19.765625 16.609375 C-23.53681093 15.89886171 -24.68733989 15.00107987 -27 12 C-28.03842565 9.68351201 -29.0421975 7.35096976 -30 5 C-30.66 4.34 -31.32 3.68 -32 3 C-29.30615566 3.37156474 -28.2197074 3.75494175 -26.375 5.8125 C-25 8 -25 8 -24.296875 9.99609375 C-22.3849522 12.95036 -20.18965144 13.26265702 -16.875 14.25 C-15.77929688 14.58515625 -14.68359375 14.9203125 -13.5546875 15.265625 C-12.71164063 15.50796875 -11.86859375 15.7503125 -11 16 C-10.67 15.01 -10.34 14.02 -10 13 C-9.34 12.67 -8.68 12.34 -8 12 C-8.33 10.68 -8.66 9.36 -9 8 C-4.75177626 8.47202486 -2.80010291 10.96655518 0 14 C-1.51865214 9.70111387 -1.51865214 9.70111387 -4 6 C-6.18292774 5.76518307 -8.37203174 5.58636677 -10.5625 5.4375 C-11.76003906 5.35371094 -12.95757812 5.26992187 -14.19140625 5.18359375 C-15.11824219 5.12300781 -16.04507813 5.06242187 -17 5 C-17 4.67 -17 4.34 -17 4 C-15.68 3.67 -14.36 3.34 -13 3 C-15.97 2.505 -15.97 2.505 -19 2 C-19 1.67 -19 1.34 -19 1 C-12.66666667 1 -6.33333333 1 0 1 C0 0.67 0 0.34 0 0 Z " fill="#160704" transform="translate(109,86)"/>
<path d="M0 0 C1.45880109 0.14107747 2.91703551 0.28802415 4.375 0.4375 C5.18710938 0.51871094 5.99921875 0.59992188 6.8359375 0.68359375 C9 1 9 1 11 2 C11 2.66 11 3.32 11 4 C9.68 4 8.36 4 7 4 C7 4.66 7 5.32 7 6 C6.01 6.495 6.01 6.495 5 7 C5 7.99 5 8.98 5 10 C6.65 9.67 8.3 9.34 10 9 C10 9.66 10 10.32 10 11 C18.58 10.67 27.16 10.34 36 10 C36 7.69 36 5.38 36 3 C36.66 2.34 37.32 1.68 38 1 C38 4.3 38 7.6 38 11 C28.11365776 13.08866385 18.10940283 14 8 14 C2.48242069 15.28315798 -1.14164697 17.98416318 -5 22 C-5.556875 22.928125 -6.11375 23.85625 -6.6875 24.8125 C-8 27 -8 27 -10.1875 27.8125 C-10.785625 27.874375 -11.38375 27.93625 -12 28 C-12 27.34 -12 26.68 -12 26 C-11.34 25.67 -10.68 25.34 -10 25 C-9.67 24.01 -9.34 23.02 -9 22 C-10.98 22.33 -12.96 22.66 -15 23 C-14.9375 21.1875 -14.9375 21.1875 -14 19 C-12.3232685 18.24382697 -10.63891521 17.49820934 -8.9140625 16.859375 C-6.83504968 15.92594067 -5.39642083 14.8109626 -3.6875 13.3125 C-1 11 -1 11 1 11 C0.95875 10.21625 0.9175 9.4325 0.875 8.625 C1 6 1 6 3 4 C2.01 3.34 1.02 2.68 0 2 C0 1.34 0 0.68 0 0 Z " fill="#926A5D" transform="translate(112,92)"/>
<path d="M0 0 C0.495 0.99 0.495 0.99 1 2 C-1.31 2.33 -3.62 2.66 -6 3 C-6.67673447 6.40320934 -6.67673447 6.40320934 -7 10 C-6.34 10.66 -5.68 11.32 -5 12 C-5.375 14.625 -5.375 14.625 -6 17 C-12.625 18 -12.625 18 -16 18 C-15.31238981 14.34435091 -13.74550455 11.48132728 -11.9375 8.25 C-11.11572266 6.77273437 -11.11572266 6.77273437 -10.27734375 5.265625 C-9.85582031 4.51796875 -9.43429688 3.7703125 -9 3 C-9.66 3 -10.32 3 -11 3 C-11.268125 4.0725 -11.53625 5.145 -11.8125 6.25 C-12.86227827 9.56508928 -13.74612328 11.43877646 -16 14 C-19.52788901 12.96238558 -21.51279796 11.60531201 -23.9375 8.9375 C-26.72929394 5.95716933 -28.84178535 5.19801022 -33 5 C-32.67 4.34 -32.34 3.68 -32 3 C-29.6859378 2.26924352 -27.35171131 1.59861742 -25 1 C-25 1.66 -25 2.32 -25 3 C-24.34 2.67 -23.68 2.34 -23 2 C-21.26267194 1.77925159 -19.51881593 1.60869362 -17.7734375 1.46484375 C-16.7421875 1.37783203 -15.7109375 1.29082031 -14.6484375 1.20117188 C-13.02808594 1.0706543 -13.02808594 1.0706543 -11.375 0.9375 C-9.74304688 0.80118164 -9.74304688 0.80118164 -8.078125 0.66210938 C-5.38569843 0.43774049 -2.69301291 0.21719886 0 0 Z " fill="#070303" transform="translate(147,103)"/>
<path d="M0 0 C0.66 0 1.32 0 2 0 C2.33 1.32 2.66 2.64 3 4 C4.32 4.33 5.64 4.66 7 5 C7.66 7.31 8.32 9.62 9 12 C8.34 12.66 7.68 13.32 7 14 C6.83312552 16.58354218 6.83312552 16.58354218 7 19 C8.60875 18.9071875 8.60875 18.9071875 10.25 18.8125 C14 19 14 19 16.4375 20.125 C18.6260738 22.75128857 18.29461899 24.68553637 18 28 C19.89179203 28.6814823 19.89179203 28.6814823 22 29 C22.66 28.34 23.32 27.68 24 27 C26.72869407 27.03287583 29.2966618 27.56397771 32 28 C32.495 30.475 32.495 30.475 33 33 C34.65 33 36.3 33 38 33 C38.33 31.35 38.66 29.7 39 28 C47.16393443 26.63934426 47.16393443 26.63934426 51 29 C51.66 28.67 52.32 28.34 53 28 C52.9175 27.071875 52.835 26.14375 52.75 25.1875 C53 22 53 22 54.5625 20.125 C57.80273788 18.6295056 60.47606359 18.79669598 64 19 C64.20086443 15.28400809 64.1519437 14.22791555 62 11 C62.875 7.8125 62.875 7.8125 64 5 C67.465 4.505 67.465 4.505 71 4 C71 4.66 71 5.32 71 6 C69.35 6.33 67.7 6.66 66 7 C65.8660868 11.12303294 65.8660868 11.12303294 66.6875 15.125 C67 17 67 17 65.9375 19.25 C63.27965174 21.65063714 61.48089499 21.14812319 58 21 C57.34 21.66 56.68 22.32 56 23 C56.061875 23.969375 56.12375 24.93875 56.1875 25.9375 C56 29 56 29 53.8125 31 C50.27875887 32.25644129 49.30530555 31.57002014 46 30 C43.29113059 29.83201738 43.29113059 29.83201738 41 30 C40.34 31.65 39.68 33.3 39 35 C36.69 35 34.38 35 32 35 C31.34 33.35 30.68 31.7 30 30 C26.53058454 30.45822468 23.32604951 30.89131683 20 32 C17.3125 30.9375 17.3125 30.9375 15 29 C14.6875 25.8125 14.6875 25.8125 15 23 C12.72945605 21.73858669 10.95721392 20.99286899 8.375 20.5625 C6 20 6 20 4 17 C4.3125 15 4.3125 15 5 13 C6.15811388 10.05270463 6.15811388 10.05270463 6 7 C3.03 6.505 3.03 6.505 0 6 C0 4.02 0 2.04 0 0 Z " fill="#8A7D7C" transform="translate(77,101)"/>
<path d="M0 0 C0.66386719 0.0721875 1.32773438 0.144375 2.01171875 0.21875 C3.33623047 0.35796875 3.33623047 0.35796875 4.6875 0.5 C5.99267578 0.63921875 5.99267578 0.63921875 7.32421875 0.78125 C9.89723339 0.99159864 12.41984364 1.03719144 15 1 C13.02 1.99 13.02 1.99 11 3 C12.8871875 3.1546875 12.8871875 3.1546875 14.8125 3.3125 C17.20071198 3.63261307 18.7698971 3.86960835 20.875 5.0625 C22.69128567 8.19054755 23.24803134 11.47153165 24 15 C21.95880212 13.38405168 19.95927063 11.7143618 18 10 C18 9.34 18 8.68 18 8 C16.68 7.67 15.36 7.34 14 7 C14.66 8.65 15.32 10.3 16 12 C15.01 12.33 14.02 12.66 13 13 C12.67 13.66 12.34 14.32 12 15 C10.41439607 14.74279326 8.83154076 14.46861201 7.25 14.1875 C5.92742187 13.96126953 5.92742187 13.96126953 4.578125 13.73046875 C1.76497318 12.93340907 0.14907101 11.96472632 -2 10 C-2.9375 7.5 -2.9375 7.5 -3 5 C-1.5625 3.3125 -1.5625 3.3125 0 2 C0 1.34 0 0.68 0 0 Z " fill="#050404" transform="translate(86,87)"/>
<path d="M0 0 C1.37478516 0.01740234 1.37478516 0.01740234 2.77734375 0.03515625 C3.69644531 0.04417969 4.61554687 0.05320313 5.5625 0.0625 C6.27277344 0.07410156 6.98304687 0.08570313 7.71484375 0.09765625 C8.04484375 1.41765625 8.37484375 2.73765625 8.71484375 4.09765625 C10.36484375 4.42765625 12.01484375 4.75765625 13.71484375 5.09765625 C14.37484375 4.10765625 15.03484375 3.11765625 15.71484375 2.09765625 C17.52734375 2.28515625 17.52734375 2.28515625 19.71484375 3.09765625 C21.85681869 6.00462224 22.71484375 7.45286713 22.71484375 11.09765625 C22.05484375 11.09765625 21.39484375 11.09765625 20.71484375 11.09765625 C20.71484375 10.43765625 20.71484375 9.77765625 20.71484375 9.09765625 C18.40484375 9.09765625 16.09484375 9.09765625 13.71484375 9.09765625 C13.71484375 9.75765625 13.71484375 10.41765625 13.71484375 11.09765625 C13.05484375 11.09765625 12.39484375 11.09765625 11.71484375 11.09765625 C11.05484375 10.43765625 10.39484375 9.77765625 9.71484375 9.09765625 C9.38484375 9.75765625 9.05484375 10.41765625 8.71484375 11.09765625 C6.90242323 11.12452904 5.08989142 11.1439934 3.27734375 11.16015625 C2.26800781 11.17175781 1.25867187 11.18335938 0.21875 11.1953125 C-2.28515625 11.09765625 -2.28515625 11.09765625 -3.28515625 10.09765625 C-3.38306195 8.60027501 -3.41490489 7.09822733 -3.41015625 5.59765625 C-3.41273437 4.78296875 -3.4153125 3.96828125 -3.41796875 3.12890625 C-3.22757857 0.21705639 -2.92223949 0.12488203 0 0 Z " fill="#0A0A0A" transform="translate(51.28515625,139.90234375)"/>
<path d="M0 0 C3.77299157 2.10585576 6.05977444 5.12278571 8.6875 8.5 C7.0375 9.16 5.3875 9.82 3.6875 10.5 C2.3675 9.18 1.0475 7.86 -0.3125 6.5 C-0.4671875 8.170625 -0.4671875 8.170625 -0.625 9.875 C-0.851875 11.07125 -1.07875 12.2675 -1.3125 13.5 C-4.3125 15.5 -4.3125 15.5 -6.875 15.3125 C-9.3125 14.5 -9.3125 14.5 -11.3125 11.5 C-11.23443651 7.2065079 -11.01652392 5.20402392 -7.9375 2.125 C-3.33869414 -0.72187982 -3.33869414 -0.72187982 0 0 Z " fill="#6E4F47" transform="translate(118.3125,107.5)"/>
<path d="M0 0 C2.97 0.495 2.97 0.495 6 1 C6 1.66 6 2.32 6 3 C6.99 2.34 7.98 1.68 9 1 C11.04296875 0.8046875 11.04296875 0.8046875 13.1875 0.875 C15.0746875 0.936875 15.0746875 0.936875 17 1 C17.33 1.99 17.66 2.98 18 4 C15.36 3.67 12.72 3.34 10 3 C10 3.66 10 4.32 10 5 C11.134375 4.979375 12.26875 4.95875 13.4375 4.9375 C17 5 17 5 18 6 C18 7.65 18 9.3 18 11 C14.7 11 11.4 11 8 11 C8 10.34 8 9.68 8 9 C6.88625 9.33 5.7725 9.66 4.625 10 C1 11 1 11 -1 11 C-1.433125 9.6078125 -1.433125 9.6078125 -1.875 8.1875 C-2.8875 4.90208333 -2.8875 4.90208333 -5 2 C-3.68 2.33 -2.36 2.66 -1 3 C-0.67 2.01 -0.34 1.02 0 0 Z " fill="#424242" transform="translate(134,140)"/>
<path d="M0 0 C2.85475306 -0.08156437 5.70713565 -0.14076372 8.5625 -0.1875 C9.36236328 -0.21263672 10.16222656 -0.23777344 10.98632812 -0.26367188 C17.44919931 -0.34280907 22.34697309 0.45426137 27.19750977 5.10864258 C27.79233154 5.73279053 28.38715332 6.35693848 29 7 C24.72952167 7.14486019 20.45967167 7.23392616 16.1875 7.3125 C14.97255859 7.35439453 13.75761719 7.39628906 12.50585938 7.43945312 C11.34248047 7.45556641 10.17910156 7.47167969 8.98046875 7.48828125 C7.37014771 7.52755737 7.37014771 7.52755737 5.72729492 7.56762695 C3 7 3 7 1.1262207 4.59448242 C0 2 0 2 0 0 Z " fill="#1F100A" transform="translate(100,78)"/>
<path d="M0 0 C4.04853238 0.11021413 6.81556467 1.0761235 10.25 3.3125 C13.25 6.6125 13.25 6.6125 13.25 9.3125 C11.0222603 9.53557542 8.79268636 9.74038178 6.5625 9.9375 C4.70044922 10.11152344 4.70044922 10.11152344 2.80078125 10.2890625 C-0.7243372 10.31233061 -2.57855092 9.67409386 -5.75 8.3125 C-9.27161797 9.86856376 -10.59461563 11.07942344 -12.75 14.3125 C-12.75 11.6725 -12.75 9.0325 -12.75 6.3125 C-10.77 6.3125 -8.79 6.3125 -6.75 6.3125 C-6.564375 5.384375 -6.564375 5.384375 -6.375 4.4375 C-5.22470906 0.5265108 -4.02142729 0.33511894 0 0 Z " fill="#937364" transform="translate(87.75,76.6875)"/>
<path d="M0 0 C9.03013288 0.19396467 14.02374109 2.45436902 20.515625 8.69140625 C23.08960664 10.9355289 25.80796011 12.06425673 28.91796875 13.42578125 C30.22701172 14.01939453 30.22701172 14.01939453 31.5625 14.625 C32.44292969 15.01300781 33.32335937 15.40101562 34.23046875 15.80078125 C36.375 17.3125 36.375 17.3125 37.17578125 19.98046875 C37.27439453 21.13482422 37.27439453 21.13482422 37.375 22.3125 C35.725 22.3125 34.075 22.3125 32.375 22.3125 C32.705 20.9925 33.035 19.6725 33.375 18.3125 C30.98431266 17.20613605 30.98431266 17.20613605 28.375 16.3125 C27.385 16.8075 27.385 16.8075 26.375 17.3125 C25.529375 16.85875 24.68375 16.405 23.8125 15.9375 C19.63547194 13.96290492 15.93621095 13.60644471 11.375 13.3125 C11.375 12.9825 11.375 12.6525 11.375 12.3125 C13.025 11.9825 14.675 11.6525 16.375 11.3125 C15.900625 10.9 15.42625 10.4875 14.9375 10.0625 C13.375 8.3125 13.375 8.3125 12.375 4.3125 C5.775 3.6525 -0.825 2.9925 -7.625 2.3125 C-4.98257723 -0.32992277 -3.68087947 0.01397802 0 0 Z " fill="#AFA19E" transform="translate(111.625,72.6875)"/>
<path d="M0 0 C3.96 0 7.92 0 12 0 C12 0.99 12 1.98 12 3 C12.61875 3.12375 13.2375 3.2475 13.875 3.375 C16 4 16 4 18 6 C13.545 6.495 13.545 6.495 9 7 C9 7.66 9 8.32 9 9 C7.1875 11.125 7.1875 11.125 5 13 C4.01 13 3.02 13 2 13 C1.34 14.32 0.68 15.64 0 17 C-0.99 16.67 -1.98 16.34 -3 16 C-2.67 14.68 -2.34 13.36 -2 12 C-1.34 12 -0.68 12 0 12 C0 11.34 0 10.68 0 10 C1.32 10 2.64 10 4 10 C3.34 7.36 2.68 4.72 2 2 C1.34 2 0.68 2 0 2 C0 1.34 0 0.68 0 0 Z " fill="#040303" transform="translate(119,86)"/>
<path d="M0 0 C0.55429688 0.22816406 1.10859375 0.45632812 1.6796875 0.69140625 C2.40414062 0.97886719 3.12859375 1.26632813 3.875 1.5625 C4.95394531 1.99755859 4.95394531 1.99755859 6.0546875 2.44140625 C8.05649404 3.2537118 8.05649404 3.2537118 10 2 C12.625 2.9375 12.625 2.9375 15 4 C14.49287967 7.71888239 13.88391785 10.73454239 12 14 C12 12.68 12 11.36 12 10 C3.585 10.495 3.585 10.495 -5 11 C-4.67 11.66 -4.34 12.32 -4 13 C-0.72444392 13.47001033 -0.72444392 13.47001033 3.0625 13.625 C4.99802734 13.73714844 4.99802734 13.73714844 6.97265625 13.8515625 C8.47119141 13.92503906 8.47119141 13.92503906 10 14 C10 14.33 10 14.66 10 15 C5.05 15 0.1 15 -5 15 C-5.66 13.68 -6.32 12.36 -7 11 C-5.68 10.34 -4.36 9.68 -3 9 C-3 8.34 -3 7.68 -3 7 C-1.02 6.67 0.96 6.34 3 6 C3 5.34 3 4.68 3 4 C2.01 3.67 1.02 3.34 0 3 C0 2.01 0 1.02 0 0 Z " fill="#3F2D28" transform="translate(131,86)"/>
<path d="M0 0 C0.66 0 1.32 0 2 0 C2.25523438 0.87011719 2.25523438 0.87011719 2.515625 1.7578125 C4.93354168 9.55173542 7.63933278 14.85962469 15 19 C21.26770384 21.06192436 29.86033594 21.24381498 36 18.75 C43.09524538 14.61110686 45.68384865 10.39431195 49 3 C49.66 3 50.32 3 51 3 C48.47968727 11.82109455 43.78966283 17.16530159 35.9375 21.8125 C29.71758857 24.19312982 22.44928664 24.06313629 16.1484375 22.12109375 C8.37084289 18.56125815 3.12781623 12.99330815 0 5 C-0.1875 2.125 -0.1875 2.125 0 0 Z " fill="#8D8D8D" transform="translate(87,103)"/>
<path d="M0 0 C0.33 0.66 0.66 1.32 1 2 C-1.31 2.33 -3.62 2.66 -6 3 C-6.67673447 6.40320934 -6.67673447 6.40320934 -7 10 C-6.34 10.66 -5.68 11.32 -5 12 C-5.375 14.625 -5.375 14.625 -6 17 C-12.625 18 -12.625 18 -16 18 C-15.31238981 14.34435091 -13.74550455 11.48132728 -11.9375 8.25 C-11.11572266 6.77273437 -11.11572266 6.77273437 -10.27734375 5.265625 C-9.85582031 4.51796875 -9.43429688 3.7703125 -9 3 C-9.66 3 -10.32 3 -11 3 C-11.33 3.66 -11.66 4.32 -12 5 C-12.33 4.67 -12.66 4.34 -13 4 C-14.68183948 3.76712992 -16.3712416 3.58735834 -18.0625 3.4375 C-19.44115234 3.31181641 -19.44115234 3.31181641 -20.84765625 3.18359375 C-21.91306641 3.09271484 -21.91306641 3.09271484 -23 3 C-23 2.67 -23 2.34 -23 2 C-15.41 1.34 -7.82 0.68 0 0 Z " fill="#110602" transform="translate(147,103)"/>
<path d="M0 0 C4.56244637 -0.05813173 9.12479724 -0.09364122 13.6875 -0.125 C14.98107422 -0.14175781 16.27464844 -0.15851563 17.60742188 -0.17578125 C18.85458984 -0.18222656 20.10175781 -0.18867187 21.38671875 -0.1953125 C23.10701294 -0.21102295 23.10701294 -0.21102295 24.86206055 -0.22705078 C28.02387216 0.00172731 30.194328 0.54728468 33 2 C33.495 2.99 33.495 2.99 34 4 C32.31390625 3.52433594 32.31390625 3.52433594 30.59375 3.0390625 C25.90030749 1.86570187 21.32011178 1.56340828 16.5 1.375 C15.67757812 1.33632812 14.85515625 1.29765625 14.0078125 1.2578125 C12.0055299 1.16468308 10.00279738 1.08131015 8 1 C8.495 1.78375 8.99 2.5675 9.5 3.375 C11 6 11 6 11 8 C17.6 8 24.2 8 31 8 C31 8.33 31 8.66 31 9 C27.37 9.33 23.74 9.66 20 10 C20.99 10.66 21.98 11.32 23 12 C14.42 11.34 5.84 10.68 -3 10 C-3 9.67 -3 9.34 -3 9 C0.96 9 4.92 9 9 9 C6.48592381 4.71675909 4.87685861 2.35468295 0 1 C0 0.67 0 0.34 0 0 Z " fill="#AA8271" transform="translate(92,77)"/>
<path d="M0 0 C2.69384434 0.37156474 3.7802926 0.75494175 5.625 2.8125 C7 5 7 5 7.703125 6.99609375 C9.6150478 9.95036 11.81034856 10.26265702 15.125 11.25 C16.22070312 11.58515625 17.31640625 11.9203125 18.4453125 12.265625 C19.28835937 12.50796875 20.13140625 12.7503125 21 13 C21.33 12.01 21.66 11.02 22 10 C22.66 9.67 23.32 9.34 24 9 C23.67 7.68 23.34 6.36 23 5 C26.59905908 5.55550695 27.99909799 6.74887248 30.25 9.5625 C30.77078125 10.20316406 31.2915625 10.84382813 31.828125 11.50390625 C32.21484375 11.99761719 32.6015625 12.49132812 33 13 C32.67 13.66 32.34 14.32 32 15 C31.21625 14.79375 30.4325 14.5875 29.625 14.375 C28.75875 14.25125 27.8925 14.1275 27 14 C26.34 14.66 25.68 15.32 25 16 C24.01 16 23.02 16 22 16 C22 15.34 22 14.68 22 14 C21.10796875 13.97421875 20.2159375 13.9484375 19.296875 13.921875 C17.54117188 13.83679688 17.54117188 13.83679688 15.75 13.75 C14.58984375 13.70359375 13.4296875 13.6571875 12.234375 13.609375 C8.46318907 12.89886171 7.31266011 12.00107987 5 9 C3.96157435 6.68351201 2.9578025 4.35096976 2 2 C1.34 1.34 0.68 0.68 0 0 Z " fill="#0F090A" transform="translate(77,89)"/>
<path d="M0 0 C3.125 0.25 3.125 0.25 4.875 1.25 C6.83388997 4.38422395 7.35667283 7.64477251 8.125 11.25 C6.08380212 9.63405168 4.08427063 7.9643618 2.125 6.25 C2.125 5.59 2.125 4.93 2.125 4.25 C0.805 3.92 -0.515 3.59 -1.875 3.25 C-1.215 4.9 -0.555 6.55 0.125 8.25 C-0.865 8.58 -1.855 8.91 -2.875 9.25 C-3.205 9.91 -3.535 10.57 -3.875 11.25 C-6.185 10.92 -8.495 10.59 -10.875 10.25 C-9.31803593 6.42836093 -6.84091316 4.06381505 -3.875 1.25 C-2.875 0.25 -2.875 0.25 0 0 Z " fill="#0F0605" transform="translate(101.875,90.75)"/>
<path d="M0 0 C0.66 0.66 1.32 1.32 2 2 C1.67 2.33 1.34 2.66 1 3 C1.66 3 2.32 3 3 3 C1.90078577 5.79799985 0.95533848 7.03550018 -1.4375 8.9375 C-4.12806459 10.85090965 -4.12806459 10.85090965 -5.5625 13.6875 C-7 16 -7 16 -9.1875 16.8125 C-9.785625 16.874375 -10.38375 16.93625 -11 17 C-11 16.34 -11 15.68 -11 15 C-10.34 14.67 -9.68 14.34 -9 14 C-8.67 13.01 -8.34 12.02 -8 11 C-9.98 11.33 -11.96 11.66 -14 12 C-13.9375 10.1875 -13.9375 10.1875 -13 8 C-11.32545626 7.24481361 -9.64361738 6.49969241 -7.921875 5.859375 C-4.78397778 4.45625023 -2.5397926 2.29200796 0 0 Z " fill="#AC745F" transform="translate(111,103)"/>
<path d="M0 0 C6.93359375 -0.09765625 6.93359375 -0.09765625 9 0 C10 1 10 1 10.0625 3.5625 C10.041875 4.366875 10.02125 5.17125 10 6 C9.34 6 8.68 6 8 6 C8.66 7.32 9.32 8.64 10 10 C9.236875 9.690625 8.47375 9.38125 7.6875 9.0625 C5.81210323 8.32106407 3.91315348 7.63771783 2 7 C2 7.99 2 8.98 2 10 C1.34 10 0.68 10 0 10 C0 6.7 0 3.4 0 0 Z " fill="#9D9D9D" transform="translate(77,141)"/>
<path d="M0 0 C0.66 0.433125 1.32 0.86625 2 1.3125 C1.67 2.9625 1.34 4.6125 1 6.3125 C-2.75 7.4375 -2.75 7.4375 -5 6.3125 C-5 7.3025 -5 8.2925 -5 9.3125 C-6.65 9.9725 -8.3 10.6325 -10 11.3125 C-10.33 9.0025 -10.66 6.6925 -11 4.3125 C-3.9452954 -0.9041302 -3.9452954 -0.9041302 0 0 Z " fill="#0D0708" transform="translate(85,84.6875)"/>
<path d="M0 0 C0.7425 0.53625 1.485 1.0725 2.25 1.625 C3.1575 2.07875 4.065 2.5325 5 3 C7.16666667 2.33333333 7.16666667 2.33333333 9 1 C12 0 12 0 14.6875 1.0625 C17 3 17 3 17.3125 6.1875 C17.209375 7.115625 17.10625 8.04375 17 9 C19.27054395 10.26141331 21.04278608 11.00713101 23.625 11.4375 C26 12 26 12 28 15 C27.625 17.1875 27.625 17.1875 27 19 C26.34 18.67 25.68 18.34 25 18 C25 16.33333333 25 14.66666667 25 13 C23.9275 13.2475 22.855 13.495 21.75 13.75 C18 14 18 14 15.5 12.4375 C14 10 14 10 14.25 6.75 C14.62125 5.38875 14.62125 5.38875 15 4 C12.60280568 3.32041397 12.60280568 3.32041397 10 3 C9.34 3.66 8.68 4.32 8 5 C2.66666667 5.33333333 2.66666667 5.33333333 0 4 C0 2.68 0 1.36 0 0 Z " fill="#AC8C7B" transform="translate(116,66)"/>
<path d="M0 0 C2.04040776 2.04040776 3 3.08325244 3 6 C-1.62 6 -6.24 6 -11 6 C-11.33 5.01 -11.66 4.02 -12 3 C-7.84920663 0.62811807 -4.81106927 -0.74838855 0 0 Z " fill="#1E0804" transform="translate(97,79)"/>
<path d="M0 0 C0.680625 0.70125 1.36125 1.4025 2.0625 2.125 C4.97597808 4.46053942 4.97597808 4.46053942 8.8125 3.25 C9.864375 2.8375 10.91625 2.425 12 2 C12.33 2.99 12.66 3.98 13 5 C5.88610478 10.55580866 5.88610478 10.55580866 1 11 C1 10.34 1 9.68 1 9 C0.34 8.67 -0.32 8.34 -1 8 C-0.835 7.236875 -0.67 6.47375 -0.5 5.6875 C0.09145396 2.96403764 0.09145396 2.96403764 0 0 Z " fill="#0B0B08" transform="translate(117,113)"/>
<path d="M0 0 C0.33 0 0.66 0 1 0 C1 3.3 1 6.6 1 10 C-8.33179302 11.97150557 -17.4999301 12.57678469 -27 13 C-27.33 12.01 -27.66 11.02 -28 10 C-19.09 9.67 -10.18 9.34 -1 9 C-1 6.69 -1 4.38 -1 2 C-0.67 1.34 -0.34 0.68 0 0 Z " fill="#7A5C51" transform="translate(149,93)"/>
<path d="M0 0 C2.05078125 0.03255208 4.1015625 0.06510417 6.15234375 0.09765625 C6.48234375 1.08765625 6.81234375 2.07765625 7.15234375 3.09765625 C4.51234375 2.76765625 1.87234375 2.43765625 -0.84765625 2.09765625 C-0.84765625 2.75765625 -0.84765625 3.41765625 -0.84765625 4.09765625 C0.85390625 4.06671875 0.85390625 4.06671875 2.58984375 4.03515625 C6.15234375 4.09765625 6.15234375 4.09765625 7.15234375 5.09765625 C7.15234375 6.74765625 7.15234375 8.39765625 7.15234375 10.09765625 C3.85234375 10.09765625 0.55234375 10.09765625 -2.84765625 10.09765625 C-2.84765625 9.10765625 -2.84765625 8.11765625 -2.84765625 7.09765625 C-0.20765625 7.42765625 2.43234375 7.75765625 5.15234375 8.09765625 C5.15234375 7.43765625 5.15234375 6.77765625 5.15234375 6.09765625 C2.84234375 6.09765625 0.53234375 6.09765625 -1.84765625 6.09765625 C-2.22984392 4.44150968 -2.56160727 2.77308601 -2.84765625 1.09765625 C-1.84765625 0.09765625 -1.84765625 0.09765625 0 0 Z " fill="#A2A2A2" transform="translate(144.84765625,140.90234375)"/>
<path d="M0 0 C1.37478516 0.01740234 1.37478516 0.01740234 2.77734375 0.03515625 C3.69644531 0.04417969 4.61554687 0.05320313 5.5625 0.0625 C6.27277344 0.07410156 6.98304687 0.08570313 7.71484375 0.09765625 C8.04484375 1.41765625 8.37484375 2.73765625 8.71484375 4.09765625 C8.05484375 4.09765625 7.39484375 4.09765625 6.71484375 4.09765625 C6.71484375 3.43765625 6.71484375 2.77765625 6.71484375 2.09765625 C4.07484375 2.09765625 1.43484375 2.09765625 -1.28515625 2.09765625 C-1.28515625 4.40765625 -1.28515625 6.71765625 -1.28515625 9.09765625 C1.35484375 9.09765625 3.99484375 9.09765625 6.71484375 9.09765625 C6.71484375 8.43765625 6.71484375 7.77765625 6.71484375 7.09765625 C7.37484375 7.09765625 8.03484375 7.09765625 8.71484375 7.09765625 C8.71484375 8.41765625 8.71484375 9.73765625 8.71484375 11.09765625 C6.90242323 11.12452904 5.08989142 11.1439934 3.27734375 11.16015625 C2.26800781 11.17175781 1.25867187 11.18335938 0.21875 11.1953125 C-2.28515625 11.09765625 -2.28515625 11.09765625 -3.28515625 10.09765625 C-3.38306195 8.60027501 -3.41490489 7.09822733 -3.41015625 5.59765625 C-3.41273437 4.78296875 -3.4153125 3.96828125 -3.41796875 3.12890625 C-3.22757857 0.21705639 -2.92223949 0.12488203 0 0 Z " fill="#B8B8B8" transform="translate(51.28515625,139.90234375)"/>
<path d="M0 0 C1.65 0 3.3 0 5 0 C5.33 1.65 5.66 3.3 6 5 C7.32 5.33 8.64 5.66 10 6 C10 6.66 10 7.32 10 8 C6.04 8 2.08 8 -2 8 C-1.34 5.36 -0.68 2.72 0 0 Z " fill="#130502" transform="translate(110,65)"/>
<path d="M0 0 C0 0.66 0 1.32 0 2 C-1.65 2.33 -3.3 2.66 -5 3 C-5.1339132 7.12303294 -5.1339132 7.12303294 -4.3125 11.125 C-4 13 -4 13 -5.0625 15.25 C-7.72679429 17.65645936 -9.50345389 17.14568942 -13 17 C-13.99 17.66 -14.98 18.32 -16 19 C-16.33 18.34 -16.66 17.68 -17 17 C-13.3558226 14.5705484 -11.28758728 14.83820425 -7 15 C-6.79913557 11.28400809 -6.8480563 10.22791555 -9 7 C-8.3125 3.875 -8.3125 3.875 -7 1 C-4 0 -4 0 0 0 Z " fill="#907066" transform="translate(148,105)"/>
<path d="M0 0 C3.04951395 1.52475697 5.36399506 2.92885326 8 5 C8.33 3.35 8.66 1.7 9 0 C9.66 0 10.32 0 11 0 C11 3.3 11 6.6 11 10 C7.43688534 8.21844267 5.64354525 6.83236991 3 4 C2.67 5.98 2.34 7.96 2 10 C1.34 10 0.68 10 0 10 C0 6.7 0 3.4 0 0 Z " fill="#A6A6A6" transform="translate(90,141)"/>
<path d="M0 0 C3.3 0 6.6 0 10 0 C10 0.66 10 1.32 10 2 C10.66 2 11.32 2 12 2 C12 2.66 12 3.32 12 4 C12.66 4.33 13.32 4.66 14 5 C14.33 5.66 14.66 6.32 15 7 C11.96835415 8.01054862 10.48249249 8.0265912 7.375 7.6875 C6.57835938 7.60886719 5.78171875 7.53023438 4.9609375 7.44921875 C3.99027344 7.22685547 3.99027344 7.22685547 3 7 C2.67 6.34 2.34 5.68 2 5 C2.99 4.34 3.98 3.68 5 3 C2.525 2.01 2.525 2.01 0 1 C0 0.67 0 0.34 0 0 Z " fill="#1E0B09" transform="translate(109,86)"/>
<path d="M0 0 C0.33 0.66 0.66 1.32 1 2 C-1.31 2.33 -3.62 2.66 -6 3 C-6.33 4.98 -6.66 6.96 -7 9 C-7.99 8.67 -8.98 8.34 -10 8 C-10 8.99 -10 9.98 -10 11 C-10.66 11 -11.32 11 -12 11 C-10.125 5.25 -10.125 5.25 -9 3 C-9.66 3 -10.32 3 -11 3 C-11.33 3.66 -11.66 4.32 -12 5 C-12.33 4.67 -12.66 4.34 -13 4 C-14.68183948 3.76712992 -16.3712416 3.58735834 -18.0625 3.4375 C-19.44115234 3.31181641 -19.44115234 3.31181641 -20.84765625 3.18359375 C-21.91306641 3.09271484 -21.91306641 3.09271484 -23 3 C-23 2.67 -23 2.34 -23 2 C-15.41 1.34 -7.82 0.68 0 0 Z " fill="#220E0A" transform="translate(147,103)"/>
<path d="M0 0 C0.99 0 1.98 0 3 0 C7 6.75 7 6.75 7 9 C6.38511719 8.9278125 5.77023438 8.855625 5.13671875 8.78125 C4.32847656 8.6884375 3.52023438 8.595625 2.6875 8.5 C1.88699219 8.4071875 1.08648437 8.314375 0.26171875 8.21875 C-2.11896555 7.95186537 -2.11896555 7.95186537 -5 8 C-4.24266726 6.6589523 -3.46867264 5.32730219 -2.6875 4 C-2.25824219 3.2575 -1.82898438 2.515 -1.38671875 1.75 C-0.70029297 0.88375 -0.70029297 0.88375 0 0 Z " fill="#A9A9A9" transform="translate(109,142)"/>
<path d="M0 0 C1.8125 0.1875 1.8125 0.1875 4 1 C6.14197494 3.90696599 7 5.35521088 7 9 C6.34 9 5.68 9 5 9 C5 8.34 5 7.68 5 7 C2.69 7 0.38 7 -2 7 C-2 7.66 -2 8.32 -2 9 C-2.66 9 -3.32 9 -4 9 C-2.94124926 5.59687262 -1.99097846 2.98646769 0 0 Z " fill="#8A8A8A" transform="translate(67,142)"/>
<path d="M0 0 C2.97 0 5.94 0 9 0 C8.67 0.66 8.34 1.32 8 2 C5.03 1.505 5.03 1.505 2 1 C2 1.66 2 2.32 2 3 C4.31 3 6.62 3 9 3 C9 4.98 9 6.96 9 9 C6.03 9 3.06 9 0 9 C0.33 8.01 0.66 7.02 1 6 C3.31 6.33 5.62 6.66 8 7 C8 6.34 8 5.68 8 5 C5.36 5 2.72 5 0 5 C0 3.35 0 1.7 0 0 Z " fill="#A1A1A1" transform="translate(168,142)"/>
<path d="M0 0 C3.63 0 7.26 0 11 0 C11.66 1.32 12.32 2.64 13 4 C11.4211316 5.5788684 9.80707663 5.28319742 7.625 5.375 C5.16796875 5.3671875 5.16796875 5.3671875 3 5 C0.9375 2.5 0.9375 2.5 0 0 Z " fill="#120401" transform="translate(100,79)"/>
<path d="M0 0 C2.69384434 0.37156474 3.7802926 0.75494175 5.625 2.8125 C7 5 7 5 7.78125 7.03515625 C9.44221009 9.71292203 10.86117403 9.88272239 13.875 10.625 C17.16277994 11.45921282 20.01456454 12.37536768 23 14 C20.74926172 13.93981983 18.49927675 13.85098794 16.25 13.75 C14.99703125 13.70359375 13.7440625 13.6571875 12.453125 13.609375 C8.52595945 12.91634579 7.37052168 12.13448128 5 9 C3.96157435 6.68351201 2.9578025 4.35096976 2 2 C1.34 1.34 0.68 0.68 0 0 Z " fill="#7C7B7C" transform="translate(77,89)"/>
<path d="M0 0 C4.56244637 -0.05813173 9.12479724 -0.09364122 13.6875 -0.125 C14.98107422 -0.14175781 16.27464844 -0.15851563 17.60742188 -0.17578125 C18.85458984 -0.18222656 20.10175781 -0.18867187 21.38671875 -0.1953125 C23.10701294 -0.21102295 23.10701294 -0.21102295 24.86206055 -0.22705078 C28.02387216 0.00172731 30.194328 0.54728468 33 2 C33.495 2.99 33.495 2.99 34 4 C32.31390625 3.52433594 32.31390625 3.52433594 30.59375 3.0390625 C25.90030749 1.86570187 21.32011178 1.56340828 16.5 1.375 C15.67757812 1.33632812 14.85515625 1.29765625 14.0078125 1.2578125 C12.0055299 1.16468308 10.00279738 1.08131015 8 1 C7.67 2.32 7.34 3.64 7 5 C6.401875 4.54625 5.80375 4.0925 5.1875 3.625 C3.49409348 2.36704087 1.75522914 1.17015276 0 0 Z " fill="#C49678" transform="translate(92,77)"/>
<path d="M0 0 C0.33 0.66 0.66 1.32 1 2 C4.63 2 8.26 2 12 2 C12 2.33 12 2.66 12 3 C9.36 3 6.72 3 4 3 C4.33 5.31 4.66 7.62 5 10 C4.13375 9.195625 3.2675 8.39125 2.375 7.5625 C-0.62876093 5.03075864 -3.03203262 4.28342624 -7 4 C-6 2 -6 2 -2.9375 0.875 C-1.4834375 0.441875 -1.4834375 0.441875 0 0 Z " fill="#120401" transform="translate(121,104)"/>
<path d="M0 0 C2.63445526 3.71923096 3.29412455 6.5434862 4.125 11 C3.465 11 2.805 11 2.125 11 C1.84785156 10.36191406 1.57070312 9.72382812 1.28515625 9.06640625 C0.92292969 8.24011719 0.56070313 7.41382812 0.1875 6.5625 C-0.17214844 5.73878906 -0.53179687 4.91507812 -0.90234375 4.06640625 C-1.70622323 2.05589883 -1.70622323 2.05589883 -2.875 1 C-5.05792774 0.76518307 -7.24703174 0.58636677 -9.4375 0.4375 C-11.23380859 0.31181641 -11.23380859 0.31181641 -13.06640625 0.18359375 C-13.99324219 0.12300781 -14.92007813 0.06242187 -15.875 0 C-15.875 -0.33 -15.875 -0.66 -15.875 -1 C-10.17920374 -2.42394907 -4.97904377 -3.46368262 0 0 Z " fill="#989A9B" transform="translate(107.875,91)"/>
<path d="M0 0 C0.66 0 1.32 0 2 0 C2.33 1.32 2.66 2.64 3 4 C4.32 4.33 5.64 4.66 7 5 C7.66 7.31 8.32 9.62 9 12 C8.34 12.66 7.68 13.32 7 14 C6.83312552 16.58354218 6.83312552 16.58354218 7 19 C7.99 19.33 8.98 19.66 10 20 C8.35 19.67 6.7 19.34 5 19 C3.76136364 14.54090909 3.76136364 14.54090909 4.9375 11.875 C5.288125 11.25625 5.63875 10.6375 6 10 C6 9.01 6 8.02 6 7 C3.03 6.505 3.03 6.505 0 6 C0 4.02 0 2.04 0 0 Z " fill="#91756D" transform="translate(77,101)"/>
<path d="M0 0 C0.66 0 1.32 0 2 0 C1.67 1.32 1.34 2.64 1 4 C2.32 4 3.64 4 5 4 C5.33 3.34 5.66 2.68 6 2 C6.99 3.32 7.98 4.64 9 6 C8.01 7.485 8.01 7.485 7 9 C6.67 8.67 6.34 8.34 6 8 C3.67182036 7.63239269 1.3381615 7.29758419 -1 7 C-1.625 4.625 -1.625 4.625 -2 2 C-1.34 1.34 -0.68 0.68 0 0 Z " fill="#1F0B09" transform="translate(85,113)"/>
<path d="M0 0 C4.2742558 1.5830577 6.26531794 4.50568404 9 8 C7.35 8.66 5.7 9.32 4 10 C0.9083091 7.47043472 0.09068668 4.77545388 -1 1 C-0.67 0.67 -0.34 0.34 0 0 Z " fill="#67433D" transform="translate(118,108)"/>
<path d="M0 0 C2.75125089 0.28233361 5.50061337 0.57547333 8.25 0.875 C9.02730469 0.95363281 9.80460938 1.03226562 10.60546875 1.11328125 C11.35957031 1.19707031 12.11367187 1.28085938 12.890625 1.3671875 C13.58188477 1.44050293 14.27314453 1.51381836 14.98535156 1.58935547 C17 2 17 2 21 4 C14.4 4 7.8 4 1 4 C0.67 2.68 0.34 1.36 0 0 Z " fill="#1D0B07" transform="translate(121,99)"/>
<path d="M0 0 C0.66 0.66 1.32 1.32 2 2 C1.67 2.33 1.34 2.66 1 3 C1.66 3 2.32 3 3 3 C1.49776416 7.20626034 -1.28550034 8.73900021 -5 11 C-5.66 9.35 -6.32 7.7 -7 6 C-4.69 4.02 -2.38 2.04 0 0 Z " fill="#955545" transform="translate(111,103)"/>
<path d="M0 0 C0.33 0.99 0.66 1.98 1 3 C-1.83430453 6.2542015 -3.68607774 7.5206753 -8 8 C-8 8.66 -8 9.32 -8 10 C-8.99 10 -9.98 10 -11 10 C-10.6875 7.625 -10.6875 7.625 -10 5 C-7 3 -7 3 -4.4375 3.0625 C-3.633125 3.041875 -2.82875 3.02125 -2 3 C-1.34 2.01 -0.68 1.02 0 0 Z " fill="#1C0805" transform="translate(143,118)"/>
<path d="M0 0 C0.66 0 1.32 0 2 0 C2 0.66 2 1.32 2 2 C2.66 2 3.32 2 4 2 C3.6875 4.375 3.6875 4.375 3 7 C0 9 0 9 -2.6875 8.625 C-3.450625 8.41875 -4.21375 8.2125 -5 8 C-4.34 7.01 -3.68 6.02 -3 5 C-2.01 5 -1.02 5 0 5 C0 3.35 0 1.7 0 0 Z " fill="#523E3C" transform="translate(114,114)"/>
<path d="M0 0 C0 3 0 3 0 3 Z M-3.4375 2.9375 C-2.2309375 2.9684375 -2.2309375 2.9684375 -1 3 C-1.33 3.53625 -1.66 4.0725 -2 4.625 C-3.22699204 7.5391061 -3.14233286 9.86867708 -3 13 C-3.99 13.495 -3.99 13.495 -5 14 C-7.08997373 10.60379269 -7.2632246 7.94836905 -7 4 C-6 3 -6 3 -3.4375 2.9375 Z " fill="#1A0604" transform="translate(149,104)"/>
<path d="M0 0 C0.66 0 1.32 0 2 0 C1.34 1.65 0.68 3.3 0 5 C-2.97851562 5.29296875 -2.97851562 5.29296875 -5.95703125 5.5859375 C-8.29988142 5.92665391 -8.29988142 5.92665391 -11 8 C-10 6 -9 4 -8 2 C-5.67284 1.62599214 -3.33882138 1.29235267 -1 1 C-0.67 0.67 -0.34 0.34 0 0 Z " fill="#B47153" transform="translate(120,101)"/>
<path d="M0 0 C2.31 0 4.62 0 7 0 C7 1.32 7 2.64 7 4 C6.67 3.34 6.34 2.68 6 2 C4.35 2 2.7 2 1 2 C0.67 3.65 0.34 5.3 0 7 C-2.375 7.625 -2.375 7.625 -5 8 C-5.66 7.34 -6.32 6.68 -7 6 C-5.35 6 -3.7 6 -2 6 C-1.34 4.02 -0.68 2.04 0 0 Z " fill="#9C8170" transform="translate(109,63)"/>
<path d="M0 0 C1.45945288 0.08708669 2.91765868 0.19526907 4.375 0.3125 C5.59316406 0.39951172 5.59316406 0.39951172 6.8359375 0.48828125 C9 1 9 1 11 4 C8.03 3.505 8.03 3.505 5 3 C4.67 3.99 4.34 4.98 4 6 C2.35 5.67 0.7 5.34 -1 5 C-0.67 3.35 -0.34 1.7 0 0 Z " fill="#130403" transform="translate(81,120)"/>
<path d="M0 0 C0.33 0.66 0.66 1.32 1 2 C0.67 2.66 0.34 3.32 0 4 C-0.99 4 -1.98 4 -3 4 C-3.66 5.32 -4.32 6.64 -5 8 C-5.99 7.67 -6.98 7.34 -8 7 C-7.67 5.68 -7.34 4.36 -7 3 C-6.34 3 -5.68 3 -5 3 C-5 2.34 -5 1.68 -5 1 C-3.35 0.67 -1.7 0.34 0 0 Z " fill="#140301" transform="translate(124,95)"/>
<path d="M0 0 C0.66 0 1.32 0 2 0 C2 2.64 2 5.28 2 8 C4.31 8 6.62 8 9 8 C9 8.66 9 9.32 9 10 C6.03 10 3.06 10 0 10 C0 6.7 0 3.4 0 0 Z " fill="#8B8B8B" transform="translate(119,141)"/>
<path d="M0 0 C0.33 0 0.66 0 1 0 C1.05399736 1.45792884 1.09279177 2.91642712 1.125 4.375 C1.14820312 5.18710938 1.17140625 5.99921875 1.1953125 6.8359375 C1 9 1 9 -1 11 C-1.99 10.67 -2.98 10.34 -4 10 C-4 8.68 -4 7.36 -4 6 C-3.34 6 -2.68 6 -2 6 C-1.855625 5.195625 -1.71125 4.39125 -1.5625 3.5625 C-1 1 -1 1 0 0 Z " fill="#090909" transform="translate(89,141)"/>
<path d="M0 0 C-0.25 1.875 -0.25 1.875 -1 4 C-2.9375 5.3125 -2.9375 5.3125 -5 6 C-5.66 5.67 -6.32 5.34 -7 5 C-7 3.35 -7 1.7 -7 0 C-3.86650268 -1.04449911 -3.01031744 -0.93423645 0 0 Z " fill="#220B08" transform="translate(103,114)"/>
<path d="M0 0 C0.94875 0.04125 1.8975 0.0825 2.875 0.125 C3.205 1.445 3.535 2.765 3.875 4.125 C1.625 4.8125 1.625 4.8125 -1.125 5.125 C-3.4375 3.6875 -3.4375 3.6875 -5.125 2.125 C-3.125 0.125 -3.125 0.125 0 0 Z " fill="#100401" transform="translate(94.125,78.875)"/>
<path d="M0 0 C1.65 0 3.3 0 5 0 C4.01 0.66 3.02 1.32 2 2 C0.79549696 4.55183404 0.79549696 4.55183404 0 7 C-2.31 7 -4.62 7 -7 7 C-7.33 5.35 -7.66 3.7 -8 2 C-7.01 2.495 -7.01 2.495 -6 3 C-6 3.66 -6 4.32 -6 5 C-4.35 5 -2.7 5 -1 5 C-0.67 3.35 -0.34 1.7 0 0 Z " fill="#959595" transform="translate(116,129)"/>
<path d="M0 0 C3.99500618 1.3697164 6.80009492 3.25722422 10 6 C6.91111478 8.05925681 6.29064073 8.2390374 2.8125 8.125 C0.9253125 8.063125 0.9253125 8.063125 -1 8 C-1 7.67 -1 7.34 -1 7 C0.65 6.67 2.3 6.34 4 6 C3.2884375 5.3503125 3.2884375 5.3503125 2.5625 4.6875 C1 3 1 3 0 0 Z " fill="#634439" transform="translate(124,78)"/>
<path d="M0 0 C1.32 0 2.64 0 4 0 C3.50168276 3.68754757 2.89932357 5.60490662 0 8 C-0.33 7.01 -0.66 6.02 -1 5 C-1.66 5 -2.32 5 -3 5 C-1.125 1.125 -1.125 1.125 0 0 Z " fill="#090A0B" transform="translate(130,109)"/>
<path d="M0 0 C0.99 0.66 1.98 1.32 3 2 C3 2.66 3 3.32 3 4 C3.99 4.33 4.98 4.66 6 5 C4.25 6.125 4.25 6.125 2 7 C-0.25 6.125 -0.25 6.125 -2 5 C-2 3.68 -2 2.36 -2 1 C-1.34 0.67 -0.68 0.34 0 0 Z " fill="#1F0E08" transform="translate(119,63)"/>
<path d="M0 0 C0.515625 0.495 1.03125 0.99 1.5625 1.5 C4.80680017 3.49649241 7.26217334 3.21564385 11 3 C11 3.66 11 4.32 11 5 C9.04196493 5.05389087 7.08351091 5.09274217 5.125 5.125 C4.03445312 5.14820312 2.94390625 5.17140625 1.8203125 5.1953125 C-1 5 -1 5 -3 3 C-2.34 3 -1.68 3 -1 3 C-0.67 2.01 -0.34 1.02 0 0 Z " fill="#070302" transform="translate(107,119)"/>
<path d="M0 0 C0.66 0 1.32 0 2 0 C2 1.32 2 2.64 2 4 C-1.63 4 -5.26 4 -9 4 C-9.33 3.01 -9.66 2.02 -10 1 C-6.7 1.33 -3.4 1.66 0 2 C0 1.34 0 0.68 0 0 Z " fill="#7E7E7E" transform="translate(58,147)"/>
<path d="M0 0 C0.33 0 0.66 0 1 0 C1 3.3 1 6.6 1 10 C-0.32 10 -1.64 10 -3 10 C-3 7.69 -3 5.38 -3 3 C-2.01 3 -1.02 3 0 3 C0 2.01 0 1.02 0 0 Z " fill="#190604" transform="translate(147,92)"/>
<path d="M0 0 C0.66 0 1.32 0 2 0 C2 3.3 2 6.6 2 10 C0.68 9.34 -0.64 8.68 -2 8 C-2 7.01 -2 6.02 -2 5 C-1.67 5 -1.34 5 -1 5 C-0.67 3.35 -0.34 1.7 0 0 Z " fill="#969696" transform="translate(99,141)"/>
<path d="M0 0 C3.59905908 0.55550695 4.99909799 1.74887248 7.25 4.5625 C8.03117187 5.52349609 8.03117187 5.52349609 8.828125 6.50390625 C9.21484375 6.99761719 9.6015625 7.49132812 10 8 C9.67 8.66 9.34 9.32 9 10 C5.79506864 7.50727561 2.72086797 5.02318663 0 2 C0 1.34 0 0.68 0 0 Z " fill="#9F7666" transform="translate(100,94)"/>
<path d="M0 0 C2.42776667 1.29480889 3.76967674 2.35838519 4.7109375 4.98046875 C5.19782198 6.9738726 5.60391861 8.98658625 6 11 C3.21611025 9.29374499 2.14615794 8.52373261 1.25 5.3125 C1.1675 4.549375 1.085 3.78625 1 3 C0.34 3 -0.32 3 -1 3 C-0.67 2.01 -0.34 1.02 0 0 Z " fill="#180C0B" transform="translate(104,91)"/>
<path d="M0 0 C3.0598298 0.81179158 4.71657229 1.73725626 7.0625 3.8125 C4.03085415 4.82304862 2.54499249 4.8390912 -0.5625 4.5 C-1.35914062 4.42136719 -2.15578125 4.34273438 -2.9765625 4.26171875 C-3.94722656 4.03935547 -3.94722656 4.03935547 -4.9375 3.8125 C-5.2675 3.1525 -5.5975 2.4925 -5.9375 1.8125 C-2.9375 -0.1875 -2.9375 -0.1875 0 0 Z " fill="#3D3436" transform="translate(116.9375,89.1875)"/>
<path d="M0 0 C1.65 0.33 3.3 0.66 5 1 C5 2.32 5 3.64 5 5 C3.35 5.66 1.7 6.32 0 7 C-0.93423645 3.98968256 -1.04449911 3.13349732 0 0 Z " fill="#361C1C" transform="translate(109,114)"/>
<path d="M0 0 C0.66 0 1.32 0 2 0 C3.33333333 4 4.66666667 8 6 12 C5.01 12.495 5.01 12.495 4 13 C-0.59225513 4.738041 -0.59225513 4.738041 0 0 Z " fill="#888584" transform="translate(87,103)"/>
<path d="M0 0 C0.66 0 1.32 0 2 0 C2.66 0.66 3.32 1.32 4 2 C4.804375 2.7425 4.804375 2.7425 5.625 3.5 C7 5 7 5 7 7 C3.5625 6.1875 3.5625 6.1875 0 5 C-0.33 4.01 -0.66 3.02 -1 2 C-0.67 1.34 -0.34 0.68 0 0 Z " fill="#606060" transform="translate(109,144)"/>
<path d="M0 0 C0.75 2.1875 0.75 2.1875 1 5 C-0.9375 7.8125 -0.9375 7.8125 -3 10 C-3.33 7.03 -3.66 4.06 -4 1 C-2 0 -2 0 0 0 Z " fill="#230A06" transform="translate(83,108)"/>
<path d="M0 0 C2.125 0.9375 2.125 0.9375 4 2 C3.34 2.66 2.68 3.32 2 4 C1.35232207 6.57061311 1.35232207 6.57061311 1 9 C0.01 9.33 -0.98 9.66 -2 10 C-2 9.34 -2 8.68 -2 8 C-1.34 8 -0.68 8 0 8 C-0.66 5.69 -1.32 3.38 -2 1 C-1.34 0.67 -0.68 0.34 0 0 Z " fill="#200E05" transform="translate(112,94)"/>
<path d="M0 0 C1.4800841 0.11362262 2.95910074 0.24122908 4.4375 0.375 C5.26121094 0.44460937 6.08492188 0.51421875 6.93359375 0.5859375 C7.95646484 0.79089844 7.95646484 0.79089844 9 1 C9.33 1.66 9.66 2.32 10 3 C7.03 3 4.06 3 1 3 C0.67 2.01 0.34 1.02 0 0 Z " fill="#9F9B9D" transform="translate(112,92)"/>
<path d="M0 0 C0.33 0.66 0.66 1.32 1 2 C2.65 2 4.3 2 6 2 C6 2.99 6 3.98 6 5 C4.35 5.66 2.7 6.32 1 7 C0.67 4.69 0.34 2.38 0 0 Z " fill="#181516" transform="translate(74,89)"/>
<path d="M0 0 C2.64 0.33 5.28 0.66 8 1 C8.66 2.65 9.32 4.3 10 6 C5.56909529 4.79157144 3.01887244 3.48331435 0 0 Z " fill="#9D6A5A" transform="translate(130,84)"/>
<path d="M0 0 C6.875 2.75 6.875 2.75 8 5 C5.36 5 2.72 5 0 5 C-0.5625 3.0625 -0.5625 3.0625 -1 1 C-0.67 0.67 -0.34 0.34 0 0 Z " fill="#140B0A" transform="translate(83,73)"/>
<path d="M0 0 C0 1.65 0 3.3 0 5 C-0.598125 5.144375 -1.19625 5.28875 -1.8125 5.4375 C-3.56150404 5.8872439 -5.28677023 6.42892341 -7 7 C-6.8125 5.1875 -6.8125 5.1875 -6 3 C-1.71428571 0 -1.71428571 0 0 0 Z " fill="#0C0C0C" transform="translate(168,142)"/>
<path d="M0 0 C0.99 0.99 1.98 1.98 3 3 C-2.29230769 7.92307692 -2.29230769 7.92307692 -5.875 8.3125 C-6.926875 8.1578125 -6.926875 8.1578125 -8 8 C-6.68 7.67 -5.36 7.34 -4 7 C-4 6.01 -4 5.02 -4 4 C-2.68 4 -1.36 4 0 4 C0 2.68 0 1.36 0 0 Z " fill="#230906" transform="translate(107,102)"/>
<path d="M0 0 C0.66 0.33 1.32 0.66 2 1 C0 4 0 4 -3 6 C-3.66 6.66 -4.32 7.32 -5 8 C-5.33 6.68 -5.66 5.36 -6 4 C-4.02 2.68 -2.04 1.36 0 0 Z " fill="#200B07" transform="translate(82,84)"/>
<path d="M0 0 C1.98 0 3.96 0 6 0 C6.33 0.99 6.66 1.98 7 3 C5.02 3.33 3.04 3.66 1 4 C0.67 2.68 0.34 1.36 0 0 Z " fill="#01010B" transform="translate(105,79)"/>
<path d="M0 0 C0.66 0.33 1.32 0.66 2 1 C2 1.66 2 2.32 2 3 C4.64 2.67 7.28 2.34 10 2 C10 2.66 10 3.32 10 4 C6.04 4 2.08 4 -2 4 C-1.34 2.68 -0.68 1.36 0 0 Z " fill="#030203" transform="translate(110,69)"/>
<path d="M0 0 C2 3 2 3 1.625 5.6875 C1.41875 6.450625 1.2125 7.21375 1 8 C0.67 8 0.34 8 0 8 C0 6.35 0 4.7 0 3 C-2.31 3 -4.62 3 -7 3 C-7 2.34 -7 1.68 -7 1 C-5.5459375 1.0309375 -5.5459375 1.0309375 -4.0625 1.0625 C-1.12534105 1.35618499 -1.12534105 1.35618499 0 0 Z " fill="#262626" transform="translate(177,142)"/>
<path d="M0 0 C0 0.66 0 1.32 0 2 C-1.2065625 2.37125 -1.2065625 2.37125 -2.4375 2.75 C-5.171081 3.72238859 -5.171081 3.72238859 -5.8125 6.125 C-5.874375 6.74375 -5.93625 7.3625 -6 8 C-6.33 6.35 -6.66 4.7 -7 3 C-3.375 0 -3.375 0 0 0 Z " fill="#0E0704" transform="translate(97,65)"/>
<path d="M0 0 C3.3 0.33 6.6 0.66 10 1 C10 1.66 10 2.32 10 3 C6.7 3 3.4 3 0 3 C0 2.01 0 1.02 0 0 Z " fill="#6B6B6B" transform="translate(142,148)"/>
<path d="M0 0 C1.65 0 3.3 0 5 0 C4.34 1.65 3.68 3.3 3 5 C1.68 4.67 0.36 4.34 -1 4 C-0.67 2.68 -0.34 1.36 0 0 Z " fill="#0F0F0F" transform="translate(118,130)"/>
<path d="M0 0 C2.64 0.33 5.28 0.66 8 1 C7.34 2.32 6.68 3.64 6 5 C6 4.34 6 3.68 6 3 C4.02 3 2.04 3 0 3 C0 2.01 0 1.02 0 0 Z " fill="#707070" transform="translate(101,128)"/>
<path d="M0 0 C0.66 0.99 1.32 1.98 2 3 C1.34 3.66 0.68 4.32 0 5 C-1.32 5 -2.64 5 -4 5 C-3.6875 3.0625 -3.6875 3.0625 -3 1 C-2.01 0.67 -1.02 0.34 0 0 Z " fill="#342A27" transform="translate(128,115)"/>
<path d="M0 0 C-1.50223584 4.20626034 -4.28550034 5.73900021 -8 8 C-8 7.01 -8 6.02 -8 5 C-2.65116279 0 -2.65116279 0 0 0 Z " fill="#805039" transform="translate(114,106)"/>
<path d="M0 0 C1.2065625 0.0309375 1.2065625 0.0309375 2.4375 0.0625 C2.1075 1.3825 1.7775 2.7025 1.4375 4.0625 C-0.5425 4.3925 -2.5225 4.7225 -4.5625 5.0625 C-3.43829114 0.08386076 -3.43829114 0.08386076 0 0 Z " fill="#A36A5A" transform="translate(101.5625,109.9375)"/>
<path d="M0 0 C2.6875 0.3125 2.6875 0.3125 5 1 C3.35 2.32 1.7 3.64 0 5 C-0.99 4.34 -1.98 3.68 -3 3 C-1.8125 1.4375 -1.8125 1.4375 0 0 Z " fill="#6B4E43" transform="translate(84,77)"/>
<path d="M0 0 C0.66 0.33 1.32 0.66 2 1 C1.6875 2.9375 1.6875 2.9375 1 5 C0.01 5.33 -0.98 5.66 -2 6 C-2.99 5.34 -3.98 4.68 -5 4 C-3.35 2.68 -1.7 1.36 0 0 Z " fill="#270F09" transform="translate(81,78)"/>
<path d="M0 0 C0.66 0.33 1.32 0.66 2 1 C2 1.66 2 2.32 2 3 C2.99 3 3.98 3 5 3 C5 3.66 5 4.32 5 5 C3.02 5 1.04 5 -1 5 C-1.33 4.34 -1.66 3.68 -2 3 C-1.34 2.01 -0.68 1.02 0 0 Z " fill="#180904" transform="translate(102,64)"/>
<path d="M0 0 C2.64 0 5.28 0 8 0 C8.33 0.99 8.66 1.98 9 3 C6.03 2.67 3.06 2.34 0 2 C0 1.34 0 0.68 0 0 Z " fill="#B3B3B3" transform="translate(143,141)"/>
<path d="M0 0 C2 1.375 2 1.375 4 3 C4 3.66 4 4.32 4 5 C3.34 5 2.68 5 2 5 C1.67 6.32 1.34 7.64 1 9 C0.34 8.67 -0.32 8.34 -1 8 C-0.835 7.236875 -0.67 6.47375 -0.5 5.6875 C0.09145396 2.96403764 0.09145396 2.96403764 0 0 Z " fill="#1C0A06" transform="translate(117,113)"/>
<path d="M0 0 C0.33 0.66 0.66 1.32 1 2 C1.66 2.33 2.32 2.66 3 3 C2.01 3.33 1.02 3.66 0 4 C0.99 4.66 1.98 5.32 3 6 C1.35 6.66 -0.3 7.32 -2 8 C-2.6875 6.25 -2.6875 6.25 -3 4 C-1.5625 1.75 -1.5625 1.75 0 0 Z " fill="#261415" transform="translate(134,114)"/>
<path d="M0 0 C3.7952131 1.49097658 5.61042731 3.75700849 8 7 C5.53199953 5.84826645 3.95216435 4.95216435 2 3 C1.01 3 0.02 3 -1 3 C-0.67 2.01 -0.34 1.02 0 0 Z " fill="#7D5854" transform="translate(118,108)"/>
<path d="M0 0 C2.83374881 3.20336822 3.5205537 5.78087253 4 10 C3.34 10 2.68 10 2 10 C0.39644899 6.49223216 -0.22036864 3.85645121 0 0 Z " fill="#878680" transform="translate(108,92)"/>
<path d="M0 0 C0.66 0 1.32 0 2 0 C2.79953138 3.28696233 3.09658936 4.71023192 2 8 C0.68 7.67 -0.64 7.34 -2 7 C-2 6.34 -2 5.68 -2 5 C-1.34 4.67 -0.68 4.34 0 4 C0 2.68 0 1.36 0 0 Z " fill="#271812" transform="translate(143,80)"/>
<path d="M0 0 C1.98 0 3.96 0 6 0 C6 0.99 6 1.98 6 3 C4.02 3 2.04 3 0 3 C0 2.01 0 1.02 0 0 Z " fill="#181818" transform="translate(79,143)"/>
<path d="M0 0 C0.33 0.66 0.66 1.32 1 2 C1.66 2 2.32 2 3 2 C2.67 2.99 2.34 3.98 2 5 C1.67 4.34 1.34 3.68 1 3 C0.01 3.66 -0.98 4.32 -2 5 C-2.99 4.67 -3.98 4.34 -5 4 C-3.35 2.68 -1.7 1.36 0 0 Z " fill="#220B05" transform="translate(113,108)"/>
<path d="M0 0 C2.31 0.66 4.62 1.32 7 2 C6.01 3.485 6.01 3.485 5 5 C3.0625 4.1875 3.0625 4.1875 1 3 C0.67 2.01 0.34 1.02 0 0 Z " fill="#1F0D10" transform="translate(139,88)"/>
<path d="M0 0 C2.475 0.99 2.475 0.99 5 2 C4.67 3.32 4.34 4.64 4 6 C3.34 5.34 2.68 4.68 2 4 C0.68252676 3.30251417 -0.64914193 2.63040043 -2 2 C-1.34 1.34 -0.68 0.68 0 0 Z " fill="#311008" transform="translate(126,68)"/>
<path d="M0 0 C2.97 0.495 2.97 0.495 6 1 C5 3 5 3 1.9375 4.125 C0.968125 4.41375 -0.00125 4.7025 -1 5 C-0.67 3.35 -0.34 1.7 0 0 Z " fill="#232323" transform="translate(134,140)"/>
<path d="M0 0 C1.98 0.66 3.96 1.32 6 2 C5.01 2.99 4.02 3.98 3 5 C2.01 4.67 1.02 4.34 0 4 C-0.33 3.01 -0.66 2.02 -1 1 C-0.67 0.67 -0.34 0.34 0 0 Z " fill="#0D0F0F" transform="translate(100,123)"/>
<path d="M0 0 C3.375 -0.1875 3.375 -0.1875 7 0 C7.66 0.99 8.32 1.98 9 3 C5.7 3 2.4 3 -1 3 C-0.67 2.01 -0.34 1.02 0 0 Z " fill="#270D0C" transform="translate(83,121)"/>
</svg>
